<svg width="40" height="40" viewBox="0 0 40 40" fill="none" xmlns="http://www.w3.org/2000/svg">
<path d="M38.0517 6.10121C37.938 6.09037 26.5445 4.89505 21.1908 0.325012L20.8116 0H18.4589L18.0797 0.325012C12.7351 4.88602 1.33255 6.09037 1.2188 6.10121L0 6.22399V7.4482C0 14.9921 1.23866 21.4508 3.68347 26.6456C6.90832 33.4998 12.1555 37.9596 19.2805 39.9025L19.6362 40L19.9919 39.9025C27.1151 37.9596 32.3622 33.4998 35.5889 26.6456C38.0337 21.4508 39.2723 14.9921 39.2723 7.4482V6.22399L38.0517 6.10121ZM36.5513 8.64353C36.538 9.36457 36.5115 10.0946 36.4718 10.8337H20.9904V3.54805C26.0624 6.89749 33.6045 8.23004 36.5531 8.64353H36.5513ZM20.9886 25.7301H33.0303C32.3983 27.0356 31.7393 28.1443 31.0008 29.1933L31.0531 29.1157H20.9904L20.9886 25.7301ZM20.9886 23.0217V19.6362H35.1988C34.8785 20.9474 34.4781 22.2379 33.9999 23.5002L34.0775 23.2655V23.0217H20.9886ZM20.9886 16.9277V13.5422H36.2551C36.1361 14.676 35.9771 15.8052 35.7784 16.9277H20.9886ZM2.71746 8.64353C5.66605 8.23004 13.2081 6.89749 18.2801 3.54805V36.7517C5.92425 32.364 2.91789 19.4141 2.71746 8.64172V8.64353ZM20.9886 36.7517V31.8241H28.8051C26.7485 33.915 24.1809 35.6196 20.9886 36.7517Z" fill="#FCD857"/>
</svg>
