<svg width="30" height="40" viewBox="0 0 30 40" fill="none" xmlns="http://www.w3.org/2000/svg">
<path d="M14.8732 9.40524C13.7911 9.40524 12.7333 9.72613 11.8335 10.3273C10.9338 10.9285 10.2325 11.783 9.81838 12.7828C9.40427 13.7826 9.29592 14.8827 9.50703 15.944C9.71815 17.0053 10.2392 17.9802 11.0044 18.7454C11.7696 19.5106 12.7445 20.0317 13.8058 20.2428C14.8672 20.4539 15.9673 20.3456 16.967 19.9314C17.9668 19.5173 18.8213 18.8161 19.4225 17.9163C20.0237 17.0165 20.3446 15.9587 20.3446 14.8766C20.3427 13.4261 19.7656 12.0356 18.7399 11.0099C17.7143 9.98424 16.3237 9.40717 14.8732 9.40524ZM14.8732 17.6123C14.3322 17.6123 13.8033 17.4518 13.3534 17.1512C12.9035 16.8506 12.5529 16.4234 12.3458 15.9235C12.1388 15.4236 12.0846 14.8736 12.1901 14.3429C12.2957 13.8122 12.5562 13.3248 12.9388 12.9422C13.3214 12.5596 13.8089 12.299 14.3395 12.1935C14.8702 12.0879 15.4203 12.1421 15.9201 12.3492C16.42 12.5562 16.8473 12.9069 17.1479 13.3567C17.4485 13.8066 17.6089 14.3355 17.6089 14.8766C17.608 15.6018 17.3194 16.2971 16.8066 16.8099C16.2938 17.3228 15.5985 17.6113 14.8732 17.6123Z" fill="#FCD857"/>
<path d="M29.6605 13.3245C28.8525 5.8051 22.5404 1.53536e-07 14.8714 1.53536e-07C12.1878 -0.000385438 9.55408 0.72552 7.24959 2.10074C4.9451 3.47595 3.05575 5.44921 1.78191 7.81124C0.508058 10.1733 -0.102798 12.836 0.0141212 15.5171C0.13104 18.1982 0.971374 20.7977 2.44601 23.0398L2.41135 22.9833L12.7485 38.852C12.9784 39.2037 13.2921 39.4927 13.6613 39.6931C14.0305 39.8934 14.4438 39.9989 14.8639 40C15.284 40.0011 15.6978 39.8977 16.0681 39.6993C16.4384 39.5008 16.7535 39.2134 16.9852 38.863L16.9907 38.8538L27.3278 22.9851C28.9075 20.5697 29.7451 17.7445 29.7371 14.8583C29.7371 14.3185 29.7079 13.786 29.6532 13.2607L29.6586 13.3264L29.6605 13.3245ZM25.039 21.4896L14.8732 37.0957L4.70749 21.4896C3.19911 19.1546 2.53408 16.3743 2.82267 13.6095C3.11125 10.8447 4.33612 8.26155 6.29418 6.2884C8.49002 4.09257 11.523 2.73385 14.8732 2.73385C18.2235 2.73385 21.2565 4.09257 23.4523 6.2884C25.4104 8.26155 26.6352 10.8447 26.9238 13.6095C27.2124 16.3743 26.5474 19.1546 25.039 21.4896Z" fill="#FCD857"/>
</svg>
