<svg width="46" height="40" viewBox="0 0 46 40" fill="none" xmlns="http://www.w3.org/2000/svg">
<path d="M10.4767 16.0579H3.40068C2.28597 16.0579 1.353 16.8374 1.12077 17.8815L1.11875 17.8976C0.40792 20.9308 0 24.4142 0 27.9926C0 31.3408 0.357434 34.6062 1.03393 37.7504L0.979411 37.4475L1.12077 38.128C1.23289 38.6561 1.52247 39.1299 1.94133 39.4704C2.36018 39.811 2.88304 39.9979 3.42289 40H10.4807C11.1038 39.9989 11.7011 39.7509 12.1416 39.3103C12.5822 38.8698 12.8302 38.2725 12.8313 37.6494V18.4085C12.8308 17.7853 12.5829 17.1877 12.1422 16.747C11.7015 16.3063 11.104 16.0585 10.4807 16.0579H10.4767ZM9.79815 36.9729H3.97015L3.94188 36.8316C3.32471 33.9266 3.01738 30.9644 3.02507 27.9946C3.02507 24.8403 3.36433 21.7648 4.00852 18.8023L3.95601 19.087H9.79815V36.9729Z" fill="#FCD857"/>
<path d="M45.2951 23.1218L43.205 17.5463C43.0399 17.1106 42.7465 16.7353 42.3636 16.47C41.9807 16.2046 41.5263 16.0616 41.0604 16.06H29.9173V13.2651L30.8241 11.2579C31.2756 10.2577 31.5254 9.17838 31.5593 8.08157C31.5931 6.98477 31.4103 5.89206 31.0212 4.86601C30.6322 3.83996 30.0446 2.90072 29.2921 2.10207C28.5396 1.30342 27.6369 0.661041 26.6358 0.211712L26.5833 0.191518C26.0343 -0.047717 25.4137 -0.0634146 24.8533 0.147762C24.2929 0.358938 23.837 0.780337 23.5825 1.32238L23.5764 1.33652L15.9734 17.9784V20.3512H18.2189L26.0078 3.3014C27.1116 3.9832 27.9283 5.04479 28.3043 6.28653C28.6803 7.52827 28.5896 8.8646 28.0494 10.0442L28.0635 10.0119L27.0235 12.316L26.8903 12.94V17.5766L28.4048 19.0911H40.5495L42.4134 24.0629V24.9413L35.9776 36.252H24.1499L15.9734 31.4559V34.9677L22.7888 38.9661C23.12 39.164 23.5219 39.2811 23.948 39.2811H36.4057C37.2538 39.2811 37.995 38.8187 38.3908 38.1341L38.3968 38.124L45.1416 26.2701C45.3294 25.945 45.4405 25.5532 45.4405 25.1372V23.9296V23.9276C45.4405 23.6388 45.386 23.3622 45.289 23.1097L45.2951 23.1259V23.1218Z" fill="#FCD857"/>
</svg>
