<svg width="30" height="40" viewBox="0 0 30 40" fill="none" xmlns="http://www.w3.org/2000/svg">
<path d="M14.8142 0C6.64534 0 7.60047e-06 6.64533 7.60047e-06 14.8142V14.8249C-0.00223298 17.033 0.490939 19.2134 1.44319 21.2056C2.39545 23.1978 3.78252 24.951 5.50223 26.336L5.53067 26.3573V30.9991C5.5335 33.3851 6.48246 35.6726 8.16946 37.36C9.85646 39.0473 12.1438 39.9967 14.5298 40H15.0987C17.4847 39.9972 19.7722 39.0482 21.4595 37.3612C23.1468 35.6742 24.0963 33.3869 24.0996 31.0009V26.3591C25.8266 24.9741 27.2203 23.2186 28.1776 21.2224C29.1349 19.2263 29.6313 17.0405 29.6302 14.8267V14.8142C29.6302 6.64533 22.9849 0 14.816 0H14.8142ZM8.19734 27.3333H21.4311V30.6667H8.19734V27.3333ZM15.0987 37.3333H14.5316C13.2706 37.3319 12.0386 36.9547 10.993 36.2498C9.9474 35.5449 9.13563 34.5444 8.66134 33.376L8.64534 33.3333H20.9849C20.5148 34.5113 19.7031 35.5216 18.6542 36.2345C17.6052 36.9473 16.3669 37.33 15.0987 37.3333ZM21.9769 24.6258L21.9218 24.6667H7.7049L7.64978 24.6258C6.10828 23.4957 4.85398 22.0191 3.98808 20.3151C3.12219 18.6111 2.66894 16.7274 2.6649 14.816V14.8142C2.6649 8.11556 8.11378 2.66667 14.8125 2.66667C21.5111 2.66667 26.96 8.11556 26.96 14.8142C26.9576 16.7193 26.5085 18.5973 25.6486 20.2973C24.7887 21.9973 23.5421 23.4719 22.0089 24.6027L21.9751 24.6258H21.9769Z" fill="#FCD857"/>
</svg>
