<svg width="167" height="94" viewBox="0 0 167 94" fill="none" xmlns="http://www.w3.org/2000/svg">
<path d="M80 69.4352C80 69.7908 79.8111 70.1197 79.504 70.2989L40.5322 93.0392C40.2208 93.2209 39.8357 93.2209 39.5243 93.0392L0.496012 70.2656C0.18886 70.0864 -1.03053e-06 69.7575 -1.04607e-06 69.4019L-3.03449e-06 23.9124C-3.05003e-06 23.5567 0.188875 23.2279 0.496049 23.0487L39.4961 0.294028C39.8075 0.112333 40.1925 0.112341 40.5039 0.294027L79.5039 23.0486C79.8111 23.2279 80 23.5568 80 23.9124L80 69.4352Z" fill="#FCD857"/>
<path d="M34.1423 12.3333L34.1423 46.3333L54.6424 46.3333L42.1424 75.3333L34.1423 75.3333L48.6424 75.3333" stroke="black" stroke-miterlimit="3.99933"/>
<path d="M91.2197 40.595L93.4521 32.1575C94.0498 29.8782 95.9922 28.7357 99.2793 28.7298H103.674C103.879 28.7298 104.052 28.8148 104.192 28.9847C104.339 29.1546 104.412 29.348 104.412 29.5648V40.5071C104.412 40.7357 104.333 40.9319 104.175 41.096C104.022 41.2542 103.832 41.3333 103.604 41.3333H101.925C101.696 41.3333 101.5 41.2542 101.336 41.096C101.178 40.9319 101.099 40.7357 101.099 40.5071V31.2171H98.9541C98.3916 31.2171 97.8994 31.3782 97.4775 31.7005C97.0615 32.0169 96.7803 32.4446 96.6338 32.9837L94.6211 40.5071C94.5625 40.7474 94.4307 40.9466 94.2256 41.1048C94.0205 41.2571 93.8037 41.3333 93.5752 41.3333H91.791C91.5859 41.3333 91.4336 41.2689 91.334 41.14C91.2402 41.011 91.1934 40.9026 91.1934 40.8148C91.1992 40.7269 91.208 40.6536 91.2197 40.595ZM107.585 40.2435C106.671 39.3997 106.214 38.1575 106.214 36.5169C106.214 34.8704 106.671 33.6282 107.585 32.7903C108.499 31.9466 109.812 31.5247 111.522 31.5247C113.239 31.5247 114.555 31.9466 115.469 32.7903C116.383 33.6282 116.84 34.8704 116.84 36.5169C116.84 38.1575 116.383 39.3997 115.469 40.2435C114.555 41.0872 113.239 41.5091 111.522 41.5091C109.812 41.5091 108.499 41.0872 107.585 40.2435ZM109.809 34.2318C109.445 34.7064 109.264 35.4651 109.264 36.5081C109.264 37.5511 109.445 38.3128 109.809 38.7933C110.172 39.2737 110.743 39.514 111.522 39.514C112.308 39.514 112.882 39.2737 113.245 38.7933C113.614 38.3128 113.799 37.5511 113.799 36.5081C113.799 35.4651 113.614 34.7064 113.245 34.2318C112.882 33.7571 112.308 33.5198 111.522 33.5198C110.743 33.5198 110.172 33.7571 109.809 34.2318ZM119.107 40.0501C118.199 39.2357 117.745 38.055 117.745 36.5081C117.745 34.9612 118.199 33.7864 119.107 32.9837C120.021 32.181 121.343 31.7532 123.071 31.7005V29.2747C123.071 29.1165 123.121 28.9876 123.221 28.888C123.326 28.7825 123.458 28.7298 123.616 28.7298H125.576C125.734 28.7298 125.863 28.7825 125.963 28.888C126.062 28.9876 126.112 29.1165 126.112 29.2747V31.7005C127.841 31.7474 129.159 32.1751 130.067 32.9837C130.981 33.7864 131.438 34.9612 131.438 36.5081C131.438 38.055 130.981 39.2357 130.067 40.0501C129.159 40.8587 127.841 41.2864 126.112 41.3333V43.7591C126.112 43.9173 126.06 44.0462 125.954 44.1458C125.854 44.2513 125.729 44.304 125.576 44.304H123.616C123.458 44.304 123.326 44.2513 123.221 44.1458C123.121 44.0462 123.071 43.9173 123.071 43.7591V41.3333C121.343 41.2864 120.021 40.8587 119.107 40.0501ZM121.357 34.3284C120.977 34.7855 120.786 35.512 120.786 36.5081C120.786 37.5042 120.977 38.2337 121.357 38.6966C121.744 39.1595 122.333 39.3968 123.124 39.4085V33.6253C122.333 33.637 121.744 33.8714 121.357 34.3284ZM126.06 39.4085C126.851 39.3968 127.437 39.1595 127.817 38.6966C128.204 38.2337 128.397 37.5042 128.397 36.5081C128.397 35.512 128.204 34.7884 127.817 34.3372C127.437 33.8802 126.851 33.6429 126.06 33.6253V39.4085ZM131.799 33.2913V32.2454C131.799 32.0872 131.849 31.9583 131.948 31.8587C132.054 31.7532 132.186 31.7005 132.344 31.7005H141.001C141.159 31.7005 141.288 31.7532 141.388 31.8587C141.487 31.9583 141.537 32.0872 141.537 32.2454V33.2913C141.537 33.4437 141.487 33.5726 141.388 33.678C141.288 33.7776 141.159 33.8275 141.001 33.8275H138.197V40.7972C138.197 40.9495 138.145 41.0784 138.039 41.1839C137.939 41.2835 137.811 41.3333 137.652 41.3333H135.692C135.534 41.3333 135.402 41.2835 135.297 41.1839C135.197 41.0784 135.147 40.9495 135.147 40.7972V33.8275H132.344C132.186 33.8275 132.054 33.7776 131.948 33.678C131.849 33.5726 131.799 33.4437 131.799 33.2913Z" fill="#FCD857"/>
<path d="M91.2568 63.4896V52.5823C91.2568 52.3421 91.3359 52.14 91.4941 51.9759C91.6523 51.8118 91.8457 51.7298 92.0742 51.7298H95.6514C95.8799 51.7298 96.0967 51.8118 96.3018 51.9759C96.5068 52.14 96.6445 52.3362 96.7148 52.5648L99.3076 60.0706L101.9 52.5648C101.971 52.3362 102.108 52.14 102.313 51.9759C102.519 51.8118 102.735 51.7298 102.964 51.7298H106.541C106.77 51.7298 106.96 51.8118 107.112 51.9759C107.271 52.14 107.35 52.3421 107.35 52.5823V63.4896C107.35 63.7298 107.268 63.9319 107.104 64.096C106.945 64.2542 106.752 64.3333 106.523 64.3333H104.941C104.713 64.3333 104.517 64.2542 104.353 64.096C104.194 63.9319 104.115 63.7298 104.115 63.4896V54.9026L101.013 63.5423C100.931 63.7591 100.787 63.9466 100.582 64.1048C100.377 64.2571 100.16 64.3333 99.9316 64.3333H98.6748C98.4463 64.3333 98.2295 64.2571 98.0244 64.1048C97.8252 63.9466 97.6816 63.7591 97.5938 63.5423L94.5 54.9026V63.4896C94.5 63.7298 94.418 63.9319 94.2539 64.096C94.0957 64.2542 93.9023 64.3333 93.6738 64.3333H92.0918C91.8633 64.3333 91.667 64.2542 91.5029 64.096C91.3389 63.9319 91.2568 63.7298 91.2568 63.4896ZM110.505 63.2259C109.603 62.3704 109.151 61.14 109.151 59.5345C109.151 57.9232 109.605 56.6868 110.514 55.8255C111.422 54.9583 112.682 54.5247 114.293 54.5247C115.904 54.5247 117.161 54.9466 118.063 55.7903C118.966 56.6282 119.417 57.8323 119.417 59.4026V59.9036C119.417 60.0618 119.364 60.1937 119.259 60.2991C119.159 60.3987 119.03 60.4485 118.872 60.4485H112.254C112.312 61.1693 112.518 61.6937 112.869 62.0218C113.227 62.3499 113.795 62.514 114.574 62.514C115.354 62.514 115.887 62.3382 116.174 61.9866C116.461 61.6351 116.815 61.4564 117.237 61.4505H118.547C118.705 61.4505 118.834 61.5032 118.934 61.6087C119.039 61.7083 119.092 61.8372 119.092 61.9954C119.092 63.6771 117.489 64.515 114.284 64.5091C112.667 64.5091 111.407 64.0814 110.505 63.2259ZM112.236 58.5941H116.323C116.265 57.2112 115.585 56.5198 114.284 56.5198C112.989 56.5198 112.307 57.2112 112.236 58.5941ZM120.489 59.6575V58.3919C120.489 56.3763 120.844 54.8441 121.553 53.7952C122.262 52.7464 123.469 52.1429 125.174 51.9847L130.017 51.554C130.017 51.554 130.046 51.554 130.104 51.554C130.228 51.554 130.336 51.5833 130.43 51.6419C130.535 51.7415 130.588 51.8616 130.588 52.0023V53.1536C130.588 53.347 130.523 53.5286 130.395 53.6985C130.271 53.8626 130.122 53.9505 129.946 53.9622L126.255 54.2698C125.03 54.3694 124.169 54.6566 123.671 55.1312C123.173 55.5999 122.924 56.3587 122.924 57.4075C123.645 56.3939 124.746 55.887 126.229 55.887C127.711 55.887 128.889 56.262 129.762 57.012C130.641 57.762 131.08 58.8284 131.08 60.2112C131.08 61.5941 130.629 62.6575 129.727 63.4017C128.824 64.14 127.512 64.5091 125.789 64.5091C122.256 64.5091 120.489 62.8919 120.489 59.6575ZM125.78 57.8909C125.065 57.8909 124.512 58.0931 124.119 58.4974C123.732 58.8958 123.539 59.4642 123.539 60.2025C123.539 60.9407 123.732 61.512 124.119 61.9163C124.512 62.3148 125.065 62.514 125.78 62.514C126.501 62.514 127.058 62.3148 127.45 61.9163C127.843 61.512 128.039 60.9407 128.039 60.2025C128.039 59.4642 127.843 58.8958 127.45 58.4974C127.058 58.0931 126.501 57.8909 125.78 57.8909ZM133.427 63.2259C132.524 62.3704 132.073 61.14 132.073 59.5345C132.073 57.9232 132.527 56.6868 133.436 55.8255C134.344 54.9583 135.604 54.5247 137.215 54.5247C138.826 54.5247 140.083 54.9466 140.985 55.7903C141.888 56.6282 142.339 57.8323 142.339 59.4026V59.9036C142.339 60.0618 142.286 60.1937 142.181 60.2991C142.081 60.3987 141.952 60.4485 141.794 60.4485H135.176C135.234 61.1693 135.439 61.6937 135.791 62.0218C136.148 62.3499 136.717 62.514 137.496 62.514C138.275 62.514 138.809 62.3382 139.096 61.9866C139.383 61.6351 139.737 61.4564 140.159 61.4505H141.469C141.627 61.4505 141.756 61.5032 141.855 61.6087C141.961 61.7083 142.014 61.8372 142.014 61.9954C142.014 63.6771 140.411 64.515 137.206 64.5091C135.589 64.5091 134.329 64.0814 133.427 63.2259ZM135.158 58.5941H139.245C139.187 57.2112 138.507 56.5198 137.206 56.5198C135.911 56.5198 135.229 57.2112 135.158 58.5941ZM143.077 63.7532L144.659 57.3636C145.104 55.5882 146.575 54.7005 149.071 54.7005H153.229C153.381 54.7005 153.507 54.7532 153.606 54.8587C153.712 54.9583 153.765 55.0872 153.765 55.2454V63.7972C153.765 63.9495 153.712 64.0784 153.606 64.1839C153.507 64.2835 153.381 64.3333 153.229 64.3333H151.26C151.107 64.3333 150.979 64.2835 150.873 64.1839C150.773 64.0784 150.724 63.9495 150.724 63.7972V56.8275H149.071C148.251 56.8275 147.732 57.2581 147.516 58.1194L146.136 63.6829C146.083 63.8763 145.978 64.0345 145.819 64.1575C145.667 64.2747 145.503 64.3333 145.327 64.3333H143.525C143.367 64.3333 143.247 64.2864 143.165 64.1927C143.089 64.0931 143.051 64.0081 143.051 63.9378C143.051 63.8675 143.06 63.806 143.077 63.7532ZM155.927 63.7972V55.2454C155.927 55.0872 155.977 54.9583 156.076 54.8587C156.182 54.7532 156.311 54.7005 156.463 54.7005H158.432C158.584 54.7005 158.71 54.7532 158.81 54.8587C158.915 54.9583 158.968 55.0872 158.968 55.2454V57.8909H161.631C162.879 57.8909 163.846 58.137 164.531 58.6292C165.217 59.1214 165.56 59.9505 165.56 61.1165C165.56 62.2767 165.217 63.1028 164.531 63.595C163.846 64.0872 162.879 64.3333 161.631 64.3333H156.463C156.311 64.3333 156.182 64.2835 156.076 64.1839C155.977 64.0784 155.927 63.9495 155.927 63.7972ZM158.968 62.3382H161.358C161.722 62.3382 162.003 62.2327 162.202 62.0218C162.407 61.8109 162.51 61.5091 162.51 61.1165C162.51 60.7181 162.407 60.4134 162.202 60.2025C162.003 59.9915 161.722 59.886 161.358 59.886H158.968V62.3382Z" fill="#FCD857"/>
</svg>
